<?xml version="1.0" encoding="UTF-8"?>
<!-- Generator: Adobe Illustrator 27.8.1, SVG Export Plug-In . SVG Version: 6.00 Build 0)  -->
<svg version="1.1" id="Calque_1" xmlns="http://www.w3.org/2000/svg" xmlns:xlink="http://www.w3.org/1999/xlink" x="0px" y="0px" viewBox="0 0 265.1 266.4" style="enable-background:new 0 0 265.1 266.4;" xml:space="preserve">
<style type="text/css">
	.st0{fill:#FFD002;}
</style>
<path class="st0" d="M178.2,210l14.5,8.4v16.7l-14.5,8.4l-14.5-8.4v-16.7L178.2,210z M147.4,210l14.5,8.4v16.7l-14.5,8.4l-14.5-8.4  v-16.7L147.4,210z M116.4,210l14.5,8.4v16.7l-14.5,8.4l-14.5-8.4v-16.7L116.4,210z M224.5,183.3l7.2,4.2l7.2,4.2v16.7l-14.5,8.4  l-14.5-8.4v-16.7L224.5,183.3z M193.7,183.3l7.3,4.2l7.2,4.2v16.7l-14.5,8.4l-14.5-8.4v-16.7L193.7,183.3z M162.8,183.3l7.2,4.2  l7.2,4.2v16.7l-14.5,8.4l-14.5-8.4v-16.7L162.8,183.3z M131.9,183.3l7.3,4.2l7.2,4.2v16.7l-14.5,8.4l-14.5-8.4v-16.7L131.9,183.3z   M101,183.3l7.3,4.2l7.2,4.2v16.7l-14.5,8.4l-14.5-8.4v-16.7L101,183.3z M70.2,183.3l7.2,4.2l7.2,4.2v16.7l-14.5,8.4l-14.5-8.4  v-16.7L70.2,183.3z M209.1,156.6l14.5,8.4v16.7l-14.5,8.4l-14.5-8.4v-16.7L209.1,156.6z M178.2,156.6l14.5,8.4v16.7l-14.5,8.4  l-14.5-8.4v-16.7L178.2,156.6z M147.4,156.6l14.5,8.4v16.7l-14.5,8.4l-14.5-8.4v-16.7L147.4,156.6z M116.4,156.6L131,165v16.7  l-14.5,8.4l-14.5-8.4v-16.7L116.4,156.6z M85.6,156.6l14.5,8.4v16.7L85.6,190l-14.5-8.4v-16.7L85.6,156.6z M54.7,156.6l14.5,8.4  v16.7L54.7,190l-14.5-8.4v-16.7L54.7,156.6z M23.9,156.6l14.5,8.4v16.7L23.9,190l-14.5-8.4v-16.7L23.9,156.6z M224.5,129.9l14.5,8.4  V155l-14.5,8.4L210,155v-16.7L224.5,129.9z M193.7,129.9l14.5,8.4V155l-14.5,8.4l-14.5-8.4v-16.7L193.7,129.9z M162.8,129.9  l14.5,8.4V155l-14.5,8.4l-14.5-8.4v-16.7L162.8,129.9z M131.9,129.9l14.5,8.4V155l-14.5,8.3l-14.5-8.4v-16.7L131.9,129.9z   M101,129.9l14.5,8.4V155l-14.5,8.4L86.5,155v-16.7L101,129.9z M70.2,129.9l14.5,8.4V155l-14.5,8.4L55.7,155v-16.7L70.2,129.9z   M39.3,129.9l14.5,8.4V155l-14.5,8.4L24.8,155v-16.7L39.3,129.9z M116.4,103.2l14.6,8.4v16.7l-14.5,8.4l-14.5-8.4v-16.7L116.4,103.2  z M240,103.2l14.5,8.3v16.7l-14.5,8.4l-14.5-8.4v-16.7L240,103.2z M209.1,103.2l14.5,8.3v16.7l-14.5,8.4l-14.5-8.4v-16.7  L209.1,103.2z M178.2,103.2l14.5,8.3v16.7l-14.5,8.4l-14.5-8.4v-16.7L178.2,103.2z M147.4,103.2l14.5,8.3v16.7l-14.5,8.4l-14.5-8.4  v-16.7L147.4,103.2z M85.6,103.1l14.5,8.4v16.7l-14.5,8.4l-14.5-8.4v-16.7L85.6,103.1z M54.7,103.1l14.5,8.4v16.7l-14.5,8.4  l-14.5-8.4v-16.7L54.7,103.1z M224.5,76.5l14.5,8.4v16.7l-14.5,8.4l-14.5-8.4V84.8L224.5,76.5z M193.7,76.5l14.5,8.4v16.7l-14.5,8.4  l-14.5-8.4V84.8L193.7,76.5z M162.8,76.5l14.5,8.4v16.7l-14.5,8.4l-14.5-8.4V84.8L162.8,76.5z M131.9,76.5l14.5,8.4v16.7l-14.5,8.4  l-14.5-8.4V84.8L131.9,76.5z M101,76.4l14.5,8.4v16.7l-14.5,8.4l-14.5-8.4V84.8L101,76.4z M70.2,76.4l14.5,8.4v16.7l-14.5,8.4  l-14.5-8.4V84.8L70.2,76.4z M209.1,49.7l7.2,4.2l7.3,4.2v16.7l-14.5,8.4l-14.5-8.4V58.1L209.1,49.7z M178.2,49.7l7.2,4.2l7.3,4.2  v16.7l-14.5,8.4l-14.5-8.4V58.1L178.2,49.7z M147.4,49.7l7.2,4.2l7.3,4.2v16.7l-14.5,8.4l-14.5-8.4V58.1l7.2-4.2L147.4,49.7z   M116.4,49.7l14.6,8.4v16.7l-14.5,8.4L102,74.8V58L116.4,49.7z M85.6,49.6l7.2,4.2l7.3,4.2v16.7l-14.5,8.4l-14.5-8.4V58L85.6,49.6z   M131.9,23l14.5,8.4v16.7l-14.5,8.4l-14.5-8.4V31.3L131.9,23z M101,22.9l14.5,8.4V48L101,56.4L86.5,48V31.3L101,22.9z M147.3,263.4   M148.3,261.8v-16.7l14.5-8.3l14.5,8.3v16.7l2,0l-0.1-0.1v-16.7l14.5-8.4l14.5,8.3l1-1.6l-14.5-8.4v-16.7l14.5-8.4l14.5,8.4h1.9  l14-8.1c0.5-0.7,0.9-1.4,1.4-2.2v-16.5L240,190l-14.5-8.4v-16.7l14.5-8.4l14.5,8.4l0.9-1.6l-14.5-8.4v-16.7l14.5-8.4l9.6,5.5  c0.1-0.7,0.1-1.4,0.1-2.2l-8.8-5.1v-16.7l7.1-4.1c-0.1-0.7-0.2-1.3-0.4-2l-7.7,4.5l-14.5-8.4V84.7l11.2-6.5c-0.4-0.5-0.7-1-1.1-1.5  L240,83.1l-14.5-8.4V58l3.6-2.1c-0.6-0.4-1.1-0.8-1.7-1.2l-2.9,1.7L210,48v-4.1c-0.6-0.3-1.3-0.7-1.9-1V48l-14.5,8.4L179.2,48V31.3  h-1.9V48l-14.5,8.4L148.3,48V31.3l14.5-8.3c-0.8-0.3-1.6-0.5-2.3-0.8l-13.1,7.5l-14.5-8.4v-8.1c-0.6-0.2-1.2-0.4-1.9-0.5v8.6  l-14.5,8.4L102,21.3V5.2c-0.6-0.1-1.3-0.3-1.9-0.4v16.5l-14.5,8.4l-14.5-8.4V4.5l-1.9,0v16.7l-12.9,7.4c0,0.7,0.1,1.4,0.1,2.1  l13.7-7.9l14.5,8.4V48l-14.5,8.4l-11.3-6.5c0.1,0.8,0.1,1.5,0.1,2.2l2.9,1.7l7.2,4.2v16.7l-14.5,8.4l-14-8.1l-1.4,1.3l14.5,8.4v16.7  l-14.5,8.4l-14.5-8.4l-0.9,1.6l14.5,8.4v16.7l-14.5,8.4l-14.5-8.4l-0.9,1.7l14.5,8.4v16.7l-14.5,8.4l-6.3-3.7  c-0.4,0.4-1.2,0.7-2.1,1l7.5,4.3v16.7l-5.1,3c0.5,0.4,1,0.9,1.5,1.3l4.6-2.6l7.2,4.2l7.2,4.2v9.7c0.6,0.5,1.3,1,1.9,1.5v-11.1  l14.5-8.4l7.3,4.2l7.2,4.2v16.7l-12.1,7c0.6,0.4,1.1,0.8,1.7,1.2l11.3-6.5l14.5,8.4v15.4c0.6,0.4,1.2,0.8,1.9,1.2v-16.5l14.5-8.4  l14.5,8.4v16.7l-14.4,8.3c0.6,0.4,1.3,0.7,1.9,1l13.4-7.7l14.5,8.3v12.4c0.6,0.2,1.3,0.5,1.9,0.7v-13.1l14.5-8.4l14.5,8.4v16.7"/>
</svg>